<svg width="16" height="19" viewBox="0 0 16 19" fill="none" xmlns="http://www.w3.org/2000/svg">
<path d="M3.47021 5.36214V5.36214C3.47021 3.46725 3.47021 2.5198 4.01805 1.94131C4.11018 1.84402 4.21185 1.75624 4.32154 1.67928C4.97375 1.2217 5.91107 1.3599 7.7857 1.63631L9.87486 1.94436C12.3191 2.30476 13.5412 2.48495 14.2704 3.32959C14.9996 4.17422 14.9996 5.40954 14.9996 7.88018V11.1198C14.9996 13.5905 14.9996 14.8258 14.2704 15.6704C13.5412 16.515 12.3191 16.6952 9.87486 17.0556L7.61928 17.3882C5.90267 17.6413 5.04437 17.7679 4.42578 17.3891C4.24031 17.2755 4.0746 17.1325 3.93519 16.9655C3.47021 16.4088 3.47021 15.5412 3.47021 13.8061V13.8061" stroke="#3A85F4" stroke-width="1.5"/>
<path d="M7.66667 6L11 9.5M11 9.5L7.66667 13M11 9.5H1" stroke="#3A85F4" stroke-width="1.5" stroke-linecap="round" stroke-linejoin="round"/>
</svg>
